<?xml version="1.0" standalone="no"?>
<!DOCTYPE svg PUBLIC "-//W3C//DTD SVG 20010904//EN"
 "http://www.w3.org/TR/2001/REC-SVG-20010904/DTD/svg10.dtd">
<svg version="1.0" xmlns="http://www.w3.org/2000/svg"
 width="512.000000pt" height="512.000000pt" viewBox="0 0 512.000000 512.000000"
 preserveAspectRatio="xMidYMid meet">
<metadata>
Created by potrace 1.11, written by Peter Selinger 2001-2013
</metadata>
<g transform="translate(0.000000,512.000000) scale(0.100000,-0.100000)"
fill="#000000" stroke="none">
<path d="M2712 4811 c-12 -10 -22 -28 -22 -40 0 -13 -7 -29 -15 -37 -8 -9 -15
-26 -15 -40 0 -13 -4 -24 -10 -24 -12 0 -14 -157 -1 -162 5 -1 12 -22 16 -45
6 -36 4 -43 -9 -43 -9 0 -16 5 -16 10 0 6 -9 10 -20 10 -11 0 -20 -4 -20 -10
0 -5 -10 -10 -23 -10 -12 0 -29 -9 -37 -20 -8 -12 -26 -20 -42 -20 -15 0 -28
-5 -28 -11 0 -6 -6 -17 -12 -24 -34 -37 -38 -47 -38 -85 0 -22 -4 -40 -9 -40
-19 0 -71 59 -71 80 0 27 -35 60 -63 60 -19 0 -57 34 -57 52 0 14 -50 9 -66
-6 -8 -8 -14 -22 -14 -30 0 -9 -4 -16 -10 -16 -15 0 -12 -67 3 -74 10 -5 10
-7 0 -12 -15 -7 -17 -54 -3 -54 6 0 10 -27 10 -60 0 -33 4 -60 10 -60 6 0 10
-9 10 -20 0 -11 5 -20 10 -20 6 0 10 -9 10 -20 0 -13 7 -20 19 -20 10 0 21 -7
25 -15 3 -8 15 -15 26 -15 11 0 20 -4 20 -10 0 -5 7 -10 15 -10 8 0 15 -4 15
-10 0 -5 -6 -10 -13 -10 -7 0 -19 -9 -27 -20 -9 -13 -26 -20 -47 -20 -18 0
-33 -4 -33 -10 0 -5 -13 -10 -30 -10 -16 0 -30 -4 -30 -9 0 -5 -13 -11 -30
-14 -21 -5 -30 -12 -30 -27 0 -11 -4 -20 -10 -20 -5 0 -10 -11 -10 -24 0 -13
-6 -26 -12 -29 -17 -5 -17 -189 0 -195 7 -2 12 -15 12 -28 0 -13 5 -24 10 -24
17 0 13 -209 -4 -226 -17 -16 -36 -19 -36 -4 0 6 -7 10 -15 10 -8 0 -15 9 -15
20 0 11 -4 20 -10 20 -5 0 -10 9 -10 20 0 11 -4 20 -10 20 -5 0 -10 18 -10 40
0 22 -4 40 -10 40 -5 0 -10 9 -10 20 0 11 -4 20 -10 20 -5 0 -10 7 -10 15 0 8
-9 15 -20 15 -13 0 -20 7 -20 20 0 13 -7 20 -20 20 -13 0 -20 7 -20 20 0 11 5
20 10 20 6 0 10 10 10 23 0 12 9 29 20 37 12 8 20 26 20 42 0 15 5 28 10 28 6
0 10 7 10 15 0 8 5 15 10 15 6 0 10 11 10 25 0 14 5 25 10 25 6 0 10 25 10 55
0 30 -4 55 -10 55 -5 0 -10 9 -10 20 0 11 -4 20 -10 20 -5 0 -10 7 -10 15 0 8
-8 15 -18 15 -10 0 -24 9 -32 20 -8 11 -22 20 -32 20 -9 0 -20 -9 -23 -20 -3
-11 -11 -20 -16 -20 -5 0 -9 -7 -9 -15 0 -8 -4 -15 -10 -15 -6 0 -10 -28 -10
-65 0 -51 -3 -65 -15 -65 -12 0 -15 -15 -15 -76 0 -55 -4 -80 -15 -91 -14 -14
-18 -13 -34 6 -10 12 -26 21 -35 21 -9 0 -16 5 -16 10 0 6 -9 10 -20 10 -11 0
-20 5 -20 10 0 6 -11 10 -25 10 -16 0 -25 6 -25 15 0 8 5 15 10 15 6 0 10 15
10 34 0 19 5 36 12 38 18 6 18 250 0 256 -7 2 -20 11 -29 20 -12 12 -18 13
-21 4 -2 -6 -19 -12 -37 -12 -23 0 -43 -9 -64 -29 -30 -28 -31 -32 -31 -109 0
-55 4 -82 13 -86 10 -5 10 -7 0 -12 -15 -7 -17 -34 -3 -34 6 0 10 -16 10 -35
0 -19 5 -35 10 -35 6 0 10 -7 10 -15 0 -8 -4 -15 -9 -15 -5 0 -16 7 -25 15 -8
8 -19 15 -25 15 -6 0 -11 5 -11 10 0 6 -9 10 -20 10 -11 0 -20 7 -20 15 0 8 9
15 20 15 15 0 20 7 20 26 0 24 -3 26 -30 21 -29 -6 -30 -5 -30 28 0 19 -4 35
-10 35 -5 0 -10 14 -10 30 0 33 -38 80 -65 80 -8 0 -15 5 -15 10 0 6 -11 10
-24 10 -16 0 -27 7 -31 20 -4 14 -15 20 -36 20 -28 0 -29 2 -29 45 0 25 5 45
10 45 6 0 10 30 10 70 0 40 -4 70 -10 70 -5 0 -10 20 -10 45 0 25 -4 45 -10
45 -5 0 -10 11 -10 25 0 14 -4 25 -10 25 -5 0 -10 12 -10 26 0 14 -6 32 -14
40 -16 16 -86 19 -86 4 0 -5 -7 -10 -16 -10 -22 0 -44 -25 -44 -49 0 -12 -4
-21 -10 -21 -5 0 -10 -13 -10 -30 0 -16 -4 -30 -10 -30 -5 0 -10 -16 -10 -35
0 -19 -4 -35 -10 -35 -14 0 -12 -37 2 -43 10 -4 9 -8 -2 -17 -11 -9 -12 -13
-2 -17 6 -2 12 -17 12 -32 0 -15 9 -33 20 -41 11 -8 20 -20 20 -28 0 -16 24
-42 39 -42 5 0 12 -4 15 -9 8 -12 -3 -41 -15 -41 -18 0 -79 -69 -79 -90 0 -17
-6 -20 -39 -20 -22 0 -42 -6 -45 -12 -5 -10 -7 -10 -12 0 -7 14 -94 17 -94 2
0 -5 -16 -10 -35 -10 -19 0 -35 -4 -35 -10 0 -5 -12 -10 -28 -10 -17 0 -34 -9
-46 -25 -10 -14 -25 -25 -33 -25 -19 0 -63 -46 -63 -66 0 -17 -36 -54 -52 -54
-5 0 -17 -8 -26 -17 -12 -12 -13 -18 -4 -21 6 -2 12 -12 12 -23 0 -14 7 -19
25 -19 14 0 25 -4 25 -10 0 -5 9 -10 19 -10 11 0 27 -7 36 -17 11 -10 19 -12
23 -6 4 6 45 13 92 16 47 3 86 10 88 16 2 6 12 11 23 11 10 0 19 5 19 10 0 6
5 10 10 10 14 0 60 46 60 60 0 5 9 10 20 10 11 0 20 5 20 10 0 6 5 10 10 10 6
0 10 -6 10 -13 0 -7 9 -19 20 -27 11 -8 20 -25 20 -39 0 -25 33 -61 57 -61 7
0 16 -13 20 -30 3 -19 12 -30 22 -30 9 0 23 -9 31 -20 9 -12 26 -20 43 -20 25
0 27 -2 13 -15 -8 -8 -24 -15 -36 -15 -21 0 -80 -53 -80 -71 0 -5 -5 -9 -10
-9 -16 0 -120 -108 -120 -125 0 -8 -4 -15 -10 -15 -5 0 -10 -7 -10 -15 0 -8
-4 -15 -10 -15 -5 0 -10 -18 -10 -40 0 -37 3 -41 30 -46 17 -4 30 -10 30 -15
0 -5 9 -9 20 -9 11 0 20 -4 20 -10 0 -5 16 -10 35 -10 19 0 35 5 35 10 0 6 11
10 25 10 14 0 25 5 25 10 0 6 9 10 19 10 18 0 121 90 121 105 0 4 7 13 15 21
8 9 15 24 15 35 0 10 5 19 10 19 6 0 10 9 10 20 0 11 7 20 15 20 9 0 15 9 15
25 0 29 51 88 58 67 2 -7 12 -12 23 -12 10 0 19 -4 19 -10 0 -5 9 -10 19 -10
11 0 22 -6 24 -12 4 -10 8 -9 16 2 7 10 11 11 11 3 0 -8 15 -13 40 -13 22 0
40 -4 40 -10 0 -5 20 -10 45 -10 25 0 45 -4 45 -10 0 -5 9 -10 20 -10 24 0 90
-62 90 -85 0 -8 5 -15 10 -15 6 0 10 -9 10 -20 0 -21 61 -90 80 -90 5 0 10 -6
10 -14 0 -8 6 -17 13 -19 9 -4 8 -8 -3 -17 -11 -9 -12 -13 -2 -17 6 -2 12 -13
12 -24 0 -14 -7 -19 -27 -20 -17 -1 -21 -3 -10 -6 18 -5 24 -23 6 -23 -18 0
-46 -33 -31 -38 6 -2 12 -15 12 -28 0 -15 6 -24 15 -24 12 0 15 -14 15 -65 0
-51 -3 -65 -15 -65 -8 0 -15 -7 -15 -15 0 -8 -4 -15 -10 -15 -5 0 -10 5 -10
10 0 6 -27 10 -60 10 -33 0 -60 -4 -60 -10 0 -5 -20 -10 -45 -10 -25 0 -45 -4
-45 -10 0 -5 -11 -10 -25 -10 -14 0 -25 -4 -25 -10 0 -5 -9 -10 -20 -10 -11 0
-20 -4 -20 -10 0 -5 -11 -10 -25 -10 -14 0 -25 -4 -25 -10 0 -5 -12 -13 -27
-16 -16 -4 -40 -20 -55 -36 -14 -15 -31 -28 -38 -28 -14 0 -40 -25 -40 -39 0
-6 -7 -11 -15 -11 -8 0 -15 -7 -15 -15 0 -8 -5 -15 -11 -15 -6 0 -28 -18 -49
-40 -21 -22 -46 -40 -54 -40 -9 0 -16 -7 -16 -15 0 -8 -9 -15 -20 -15 -11 0
-20 -7 -20 -15 0 -9 -16 -31 -35 -51 -19 -19 -35 -41 -35 -49 0 -8 -5 -15 -11
-15 -16 0 -39 -26 -39 -44 0 -9 -8 -16 -20 -16 -11 0 -20 -7 -20 -15 0 -8 -4
-15 -10 -15 -5 0 -10 -9 -10 -20 0 -11 -4 -20 -10 -20 -5 0 -10 -6 -10 -13 0
-7 -9 -19 -20 -27 -11 -8 -20 -22 -20 -32 0 -10 -4 -18 -10 -18 -5 0 -10 -7
-10 -15 0 -8 -4 -15 -9 -15 -6 0 -13 -20 -17 -45 -3 -25 -10 -45 -15 -45 -5 0
-9 -9 -9 -20 0 -11 -4 -20 -10 -20 -5 0 -10 -13 -10 -30 0 -16 -4 -30 -10 -30
-5 0 -10 -11 -10 -25 0 -16 -6 -25 -15 -25 -12 0 -15 -13 -15 -60 0 -33 -4
-60 -10 -60 -5 0 -10 -9 -10 -20 0 -11 -4 -20 -10 -20 -5 0 -10 -20 -10 -45 0
-25 5 -45 10 -45 14 0 12 -37 -2 -44 -10 -5 -10 -7 0 -12 16 -7 16 -31 0 -38
-10 -5 -10 -7 0 -12 15 -7 18 -254 2 -254 -5 0 -10 -15 -10 -34 0 -19 -6 -36
-12 -38 -23 -8 18 -38 51 -38 17 0 31 -4 31 -10 0 -5 14 -10 30 -10 17 0 30
-4 30 -10 0 -5 5 -10 10 -10 12 0 22 -8 80 -62 22 -20 40 -46 40 -57 0 -12 4
-21 10 -21 5 0 20 -11 34 -25 14 -14 30 -25 36 -25 5 0 10 -4 10 -8 0 -22 39
-49 78 -56 59 -9 72 -24 72 -85 0 -28 5 -51 10 -51 6 0 10 -16 10 -36 0 -46
17 -61 71 -64 77 -4 89 -2 89 20 0 11 5 20 10 20 6 0 10 16 10 35 0 19 -4 35
-10 35 -5 0 -10 9 -10 20 0 11 5 20 10 20 6 0 10 -4 10 -10 0 -5 14 -10 30
-10 17 0 30 -4 30 -9 0 -5 20 -12 45 -15 25 -4 45 -11 45 -17 0 -5 20 -9 45
-9 25 0 45 -4 45 -10 0 -5 25 -10 55 -10 30 0 55 -4 55 -10 0 -5 23 -10 50
-10 28 0 50 -4 50 -10 0 -6 43 -10 109 -10 60 0 111 -4 113 -9 2 -5 60 -11
130 -13 l128 -3 0 -27 c0 -14 -6 -29 -12 -32 -10 -5 -10 -7 0 -12 6 -3 12 -19
12 -36 0 -34 20 -58 49 -58 12 0 21 -4 21 -10 0 -5 11 -10 25 -10 14 0 25 -4
25 -10 0 -15 29 -12 46 4 10 11 14 41 14 115 l0 101 35 0 c19 0 35 5 35 10 0
6 23 10 50 10 28 0 50 5 50 10 0 6 7 10 15 10 9 0 15 9 15 23 0 12 9 29 20 37
14 10 20 26 20 52 0 21 5 38 10 38 6 0 10 7 10 15 0 8 -9 15 -20 15 -16 0 -20
7 -20 30 0 17 5 30 10 30 14 0 12 37 -2 43 -10 4 -10 6 0 6 8 1 12 22 12 71 0
40 4 70 10 70 14 0 12 37 -2 43 -10 4 -9 8 2 17 11 9 12 13 3 17 -7 2 -13 11
-13 19 0 10 -13 14 -45 14 -25 0 -45 -4 -45 -9 0 -4 -19 -11 -41 -14 -23 -3
-46 -11 -50 -19 -7 -11 -11 -10 -20 2 -8 11 -12 12 -16 3 -2 -7 -13 -13 -23
-13 -10 0 -21 6 -24 13 -5 9 -7 9 -12 0 -4 -10 -47 -13 -165 -13 l-159 0 0 25
c0 14 5 25 10 25 13 0 13 37 1 42 -5 2 -12 68 -15 148 -3 80 -5 151 -5 158 -1
14 -31 17 -31 2 0 -5 -4 -10 -10 -10 -5 0 -10 9 -10 20 0 15 7 20 25 20 14 0
25 5 25 10 0 6 -7 10 -15 10 -8 0 -15 9 -15 20 0 24 25 27 34 4 3 -9 6 -27 6
-40 0 -13 5 -24 10 -24 6 0 10 -28 10 -64 0 -42 4 -66 13 -69 9 -4 9 -6 0 -6
-18 -1 -18 -137 0 -144 9 -4 8 -8 -3 -17 -11 -9 -12 -13 -2 -17 6 -2 12 -20
12 -39 0 -31 3 -34 30 -34 20 0 30 5 30 15 0 8 5 15 10 15 6 0 10 14 10 30 0
17 -4 30 -10 30 -6 0 -10 38 -10 95 0 57 -4 95 -10 95 -6 0 -10 32 -10 75 0
43 -4 75 -10 75 -5 0 -10 16 -10 35 0 19 -4 35 -10 35 -5 0 -10 18 -10 40 0
22 5 40 10 40 14 0 12 37 -2 44 -10 5 -10 7 0 12 9 4 12 45 12 155 0 93 4 149
10 149 14 0 12 27 -2 34 -10 5 -10 7 0 12 14 7 16 54 2 54 -6 0 -10 47 -10
120 0 66 2 120 5 120 3 0 17 -11 30 -25 22 -21 25 -33 25 -95 0 -40 4 -70 10
-70 6 0 10 -16 10 -35 0 -25 8 -44 25 -60 24 -25 65 -34 65 -15 0 6 9 10 21
10 29 0 49 24 49 58 0 17 6 33 13 35 10 4 10 6 0 6 -8 1 -13 16 -13 41 0 22
-4 40 -10 40 -5 0 -10 11 -10 25 0 14 5 25 10 25 6 0 10 7 10 16 0 20 24 44
44 44 9 0 16 4 16 9 0 5 9 13 20 16 16 5 20 15 20 46 0 21 4 39 9 39 4 0 11
35 15 78 3 42 11 79 16 80 17 6 12 52 -6 52 -11 0 -15 8 -13 28 4 49 0 62 -21
62 -11 0 -20 -4 -20 -10 0 -14 -37 -12 -43 3 -4 9 -8 8 -17 -3 -9 -11 -13 -12
-17 -2 -6 14 -73 17 -73 2 0 -5 -16 -10 -35 -10 l-35 0 0 50 c0 28 5 50 10 50
6 0 10 11 10 25 0 14 4 25 9 25 4 0 11 30 14 67 3 37 10 69 16 71 6 2 11 10
11 19 0 17 24 43 39 43 6 0 11 16 11 35 0 19 5 35 10 35 6 0 10 11 10 25 0 14
5 25 10 25 6 0 10 17 10 38 0 26 6 42 20 52 15 11 20 26 20 62 0 26 -4 48 -10
48 -6 0 -10 35 -10 85 0 79 2 88 25 111 l26 26 19 -24 c11 -12 24 -29 30 -35
6 -7 20 -13 30 -13 11 0 20 -4 20 -10 0 -5 9 -10 20 -10 11 0 20 -4 20 -10 0
-6 27 -10 60 -10 33 0 60 4 60 10 0 6 9 10 20 10 11 0 20 4 20 10 0 5 23 12
50 16 28 4 50 10 50 15 0 5 7 9 15 9 11 0 15 11 15 40 0 36 -2 40 -25 40 -16
0 -25 6 -25 15 0 10 -10 15 -30 15 -16 0 -30 5 -30 10 0 6 -9 10 -20 10 -11 0
-20 7 -20 15 0 12 -14 15 -70 15 -40 0 -70 4 -70 10 0 6 7 10 15 10 8 0 15 5
15 10 0 14 66 80 80 80 5 0 10 -9 10 -20 0 -13 7 -20 20 -20 11 0 20 -4 20
-10 0 -6 35 -10 85 -10 50 0 85 4 85 10 0 6 11 10 25 10 14 0 25 5 25 10 0 6
9 10 20 10 11 0 20 5 20 10 0 6 7 10 16 10 9 0 29 14 44 30 15 17 35 30 44 30
24 0 20 39 -6 62 -19 16 -20 21 -8 29 11 8 12 12 3 16 -7 2 -13 9 -13 15 0 5
-8 17 -17 26 -12 12 -18 13 -21 4 -2 -7 -21 -12 -43 -12 -21 0 -39 -4 -39 -9
0 -5 -20 -12 -45 -15 -25 -4 -45 -11 -45 -17 0 -5 -7 -9 -15 -9 -8 0 -15 5
-15 10 0 6 7 10 15 10 8 0 15 7 15 15 0 8 5 15 10 15 6 0 10 37 10 90 0 53 -4
90 -10 90 -5 0 -10 9 -10 19 0 12 -9 21 -25 25 -18 5 -25 13 -25 32 0 26 20
54 39 54 6 0 11 7 11 15 0 8 5 15 10 15 6 0 10 13 10 29 0 16 5 31 11 33 14 5
14 201 0 206 -6 2 -11 12 -11 23 0 10 -4 19 -10 19 -5 0 -10 8 -10 19 0 34
-93 43 -128 12z m44 -65 c19 -20 18 -26 -6 -26 -13 0 -20 7 -20 20 0 24 6 25
26 6z m40 -90 c28 -28 13 -86 -22 -86 -2 0 -4 23 -4 50 0 53 3 58 26 36z m-46
-176 c0 -5 -4 -10 -10 -10 -5 0 -10 5 -10 10 0 6 5 10 10 10 6 0 10 -4 10 -10z
m-1760 -35 c0 -14 5 -25 10 -25 6 0 10 -20 10 -45 0 -25 5 -45 10 -45 6 0 10
-22 10 -49 0 -45 -10 -61 -36 -61 -2 0 -4 45 -4 100 0 60 -4 100 -10 100 -5 0
-10 9 -10 19 0 11 -6 22 -12 24 -7 3 -3 6 10 6 17 1 22 -5 22 -24z m-70 -55
c0 -5 -7 -10 -15 -10 -8 0 -15 5 -15 10 0 6 7 10 15 10 8 0 15 -4 15 -10z
m1300 -90 c0 -34 -5 -37 -26 -15 -13 12 -13 17 -2 29 20 23 28 19 28 -14z
m-1300 0 c0 -5 -7 -10 -15 -10 -8 0 -15 5 -15 10 0 6 7 10 15 10 8 0 15 -4 15
-10z m1330 0 c0 -5 -4 -10 -10 -10 -5 0 -10 5 -10 10 0 6 5 10 10 10 6 0 10
-4 10 -10z m520 -30 c0 -24 -6 -25 -26 -6 -19 20 -18 26 6 26 13 0 20 -7 20
-20z m-1850 -20 c0 -23 -16 -26 -36 -6 -20 20 -18 26 11 26 18 0 25 -5 25 -20z
m1380 0 c0 -11 -7 -20 -15 -20 -8 0 -15 9 -15 20 0 11 7 20 15 20 8 0 15 -9
15 -20z m213 8 c4 -10 8 -9 16 2 5 8 13 11 18 7 4 -5 1 -12 -7 -18 -13 -8 -13
-10 0 -19 10 -6 11 -10 3 -10 -7 0 -13 -11 -13 -24 0 -13 6 -26 13 -29 6 -2 9
-8 5 -12 -10 -11 -38 20 -38 43 0 11 6 23 13 25 6 3 -3 6 -20 6 -26 1 -33 5
-33 21 0 22 35 28 43 8z m257 -78 c0 -43 -3 -50 -20 -50 -13 0 -20 7 -20 20 0
11 5 20 10 20 6 0 10 14 10 30 0 17 5 30 10 30 6 0 10 -22 10 -50z m-1760 -16
c0 -3 -7 -12 -15 -21 -20 -19 -32 -10 -14 11 14 15 29 21 29 10z m1702 -73
c-12 -10 -22 -26 -22 -35 0 -9 -4 -16 -10 -16 -5 0 -10 7 -10 16 0 18 36 54
53 54 6 0 0 -8 -11 -19z m-202 -1 c0 -5 -4 -10 -10 -10 -5 0 -10 5 -10 10 0 6
5 10 10 10 6 0 10 -4 10 -10z m-260 -20 c0 -5 -4 -10 -10 -10 -5 0 -10 5 -10
10 0 6 5 10 10 10 6 0 10 -4 10 -10z m150 -20 c0 -5 -4 -10 -10 -10 -5 0 -10
5 -10 10 0 6 5 10 10 10 6 0 10 -4 10 -10z m90 0 c0 -5 -4 -10 -10 -10 -5 0
-10 5 -10 10 0 6 5 10 10 10 6 0 10 -4 10 -10z m460 0 c0 -5 -4 -10 -10 -10
-5 0 -10 5 -10 10 0 6 5 10 10 10 6 0 10 -4 10 -10z m-1420 -30 c0 -11 -4 -20
-10 -20 -5 0 -10 -7 -10 -15 0 -8 5 -15 10 -15 6 0 10 -9 10 -20 0 -11 -4 -20
-10 -20 -5 0 -10 -13 -10 -30 0 -16 -4 -30 -10 -30 -5 0 -10 -7 -10 -15 0 -8
-4 -15 -10 -15 -5 0 -10 7 -10 15 0 8 -7 15 -15 15 -8 0 -15 5 -15 10 0 6 7
10 15 10 8 0 15 5 15 10 0 6 -7 10 -15 10 -10 0 -15 10 -15 30 0 25 4 30 25
30 16 0 25 6 25 15 0 9 -9 15 -25 15 -14 0 -25 5 -25 10 0 6 7 10 15 10 8 0
15 5 15 10 0 6 14 10 30 10 23 0 30 -4 30 -20z m830 10 c0 -5 -4 -10 -10 -10
-5 0 -10 5 -10 10 0 6 5 10 10 10 6 0 10 -4 10 -10z m280 0 c0 -5 -4 -10 -10
-10 -5 0 -10 5 -10 10 0 6 5 10 10 10 6 0 10 -4 10 -10z m270 0 c0 -5 -4 -10
-10 -10 -5 0 -10 5 -10 10 0 6 5 10 10 10 6 0 10 -4 10 -10z m80 4 c0 -3 -7
-12 -15 -21 -20 -19 -32 -10 -14 11 14 15 29 21 29 10z m-2020 -23 c0 -5 -8
-12 -19 -16 -10 -3 -21 -19 -25 -35 -3 -18 -12 -30 -21 -30 -18 0 -21 40 -2
40 6 1 21 12 32 25 21 26 35 32 35 16z m226 -55 c17 -18 18 -42 2 -50 -10 -5
-10 -7 0 -12 23 -11 13 -34 -15 -33 -17 1 -21 3 -10 6 21 5 23 23 2 23 -8 0
-15 5 -15 10 0 6 7 10 15 10 8 0 15 5 15 10 0 6 -5 10 -11 10 -11 0 -39 24
-39 34 0 12 42 6 56 -8z m1601 -1 c8 -9 13 -19 10 -22 -6 -5 -37 21 -37 31 0
10 11 6 27 -9z m-951 -19 c16 -17 20 -146 4 -146 -6 0 -10 27 -10 60 0 53 -2
60 -20 60 -23 0 -25 5 -7 25 15 18 16 18 33 1z m704 4 c0 -5 -9 -10 -20 -10
-11 0 -20 5 -20 10 0 6 9 10 20 10 11 0 20 -4 20 -10z m-80 -20 c0 -5 9 -10
20 -10 13 0 20 -7 20 -20 0 -11 -4 -20 -10 -20 -12 0 -60 -48 -60 -61 0 -11
-25 -39 -34 -39 -12 0 -6 48 7 53 9 4 8 8 -3 16 -8 5 -11 13 -7 18 5 4 12 1
16 -6 7 -11 13 -9 30 8 22 22 28 51 11 51 -5 0 -10 5 -10 10 0 6 5 10 10 10 6
0 10 -4 10 -10z m-1545 -49 c-3 -6 -14 -10 -23 -10 -15 1 -15 2 1 6 9 2 17 9
17 15 0 6 3 9 6 5 3 -3 3 -10 -1 -16z m149 7 c11 -10 11 -15 0 -25 -17 -17
-24 -16 -24 2 0 8 -4 15 -10 15 -5 0 -10 5 -10 10 0 14 28 13 44 -2z m1306 2
c0 -5 -4 -10 -10 -10 -5 0 -10 5 -10 10 0 6 5 10 10 10 6 0 10 -4 10 -10z
m-1610 -25 c0 -8 -9 -15 -20 -15 -11 0 -20 7 -20 15 0 8 9 15 20 15 11 0 20
-7 20 -15z m-160 -5 c0 -5 -9 -10 -20 -10 -11 0 -20 5 -20 10 0 6 9 10 20 10
11 0 20 -4 20 -10z m1660 0 c0 -5 -4 -10 -10 -10 -5 0 -10 -16 -10 -35 0 -19
-4 -35 -10 -35 -5 0 -10 9 -10 19 0 11 -3 26 -6 35 -4 11 -1 16 10 16 9 0 16
5 16 10 0 6 5 10 10 10 6 0 10 -4 10 -10z m-1720 -20 c0 -5 -9 -10 -20 -10
-15 0 -20 -7 -20 -25 0 -14 -4 -25 -10 -25 -14 0 -12 38 3 55 14 16 47 20 47
5z m340 -15 c0 -15 6 -25 14 -25 8 0 18 -9 21 -20 3 -11 11 -20 16 -20 5 0 9
-9 9 -21 0 -25 31 -60 38 -41 4 14 42 16 42 2 0 -5 9 -10 20 -10 13 0 20 -7
20 -20 0 -11 5 -20 10 -20 15 0 12 -19 -5 -36 -13 -13 -18 -13 -40 8 -65 60
-75 68 -88 68 -8 0 -17 14 -20 30 -4 18 -13 30 -22 30 -8 0 -15 7 -15 15 0 8
-4 15 -10 15 -5 0 -10 16 -10 35 0 19 5 35 10 35 6 0 10 -11 10 -25z m1310 -6
c0 -6 6 -17 14 -25 8 -7 16 -18 18 -23 1 -5 17 -12 34 -15 26 -6 36 -2 62 23
18 16 32 34 32 40 0 6 5 11 10 11 6 0 10 -16 10 -35 0 -32 -2 -35 -30 -35 -16
0 -30 -5 -30 -11 0 -14 -25 -39 -39 -39 -6 0 -11 -16 -11 -35 0 -19 -4 -35
-10 -35 -5 0 -10 -13 -10 -30 0 -16 5 -30 10 -30 15 0 13 -147 -2 -154 -10 -5
-10 -7 0 -12 27 -13 5 -84 -26 -84 -12 0 -3 94 9 98 12 5 11 62 -1 62 -5 0
-10 9 -10 20 0 11 5 20 11 20 6 0 3 7 -6 16 -12 12 -14 27 -9 67 4 29 11 54
15 55 14 6 10 22 -4 22 -7 0 -19 -9 -27 -20 -17 -24 -50 -26 -50 -4 0 9 9 25
21 35 19 16 20 20 6 34 -22 21 -47 19 -47 -5 0 -13 -7 -20 -20 -20 -13 0 -20
-7 -20 -20 0 -13 7 -20 20 -20 11 0 20 -6 20 -13 0 -8 -12 -14 -30 -14 -30 0
-30 1 -30 53 0 44 3 54 20 59 11 3 20 15 20 26 0 12 7 19 20 19 11 0 20 7 20
15 0 8 9 15 20 15 11 0 20 -5 20 -11z m100 -29 c0 -5 -7 -10 -15 -10 -8 0 -15
5 -15 10 0 6 7 10 15 10 8 0 15 -4 15 -10z m-1820 -20 c0 -5 -4 -10 -10 -10
-5 0 -10 5 -10 10 0 6 5 10 10 10 6 0 10 -4 10 -10z m220 0 c0 -5 -2 -10 -4
-10 -2 0 -12 -3 -22 -7 -16 -6 -17 -5 -4 10 17 19 30 22 30 7z m330 0 c0 -5
-4 -10 -10 -10 -5 0 -10 5 -10 10 0 6 5 10 10 10 6 0 10 -4 10 -10z m790 -5
c0 -8 -4 -15 -10 -15 -5 0 -10 7 -10 15 0 8 5 15 10 15 6 0 10 -7 10 -15z
m703 -12 c-7 -2 -13 -13 -13 -24 0 -12 -7 -19 -20 -19 -15 0 -20 7 -20 25 0
22 4 25 33 24 17 0 26 -3 20 -6z m167 -13 c13 -11 20 -23 17 -27 -4 -3 -15 3
-25 15 -12 13 -34 22 -63 25 l-44 4 46 1 c33 2 52 -3 69 -18z m-2050 0 c0 -5
-7 -10 -15 -10 -8 0 -15 -4 -15 -10 0 -5 -9 -10 -20 -10 -11 0 -20 5 -20 10 0
6 9 10 20 10 11 0 20 5 20 10 0 6 7 10 15 10 8 0 15 -4 15 -10z m660 -10 c8
-11 25 -20 37 -20 13 0 23 -4 23 -10 0 -5 14 -10 30 -10 23 0 30 -4 30 -20 0
-11 -4 -20 -10 -20 -5 0 -10 5 -10 10 0 6 -11 10 -25 10 -14 0 -25 5 -25 10 0
6 -9 10 -20 10 -11 0 -20 5 -20 10 0 6 -7 10 -16 10 -15 0 -44 23 -44 34 0 15
37 4 50 -14z m-790 -34 c0 -3 -7 -6 -15 -6 -9 0 -15 9 -15 21 0 18 2 19 15 5
8 -8 15 -17 15 -20z m2130 24 c0 -5 -4 -10 -10 -10 -5 0 -10 5 -10 10 0 6 5
10 10 10 6 0 10 -4 10 -10z m26 -45 c-5 -21 -12 -25 -46 -25 -22 0 -40 5 -40
10 0 6 13 10 28 10 16 0 34 8 42 20 18 24 24 19 16 -15z m-1096 -14 c0 -5 20
-12 45 -15 36 -6 45 -11 45 -27 0 -12 7 -19 20 -19 13 0 20 -7 20 -20 0 -15 7
-20 25 -20 14 0 25 -4 25 -9 0 -5 10 -11 22 -13 13 -2 24 -11 27 -23 2 -10 16
-31 32 -46 16 -15 29 -34 29 -43 0 -9 5 -16 10 -16 6 0 10 -9 10 -19 0 -11 6
-21 13 -24 7 -2 8 -8 3 -13 -5 -5 -11 -4 -13 4 -3 7 -22 12 -44 12 -32 0 -39
3 -39 20 0 11 5 20 10 20 6 0 10 7 10 15 0 15 -6 25 -37 60 -7 7 -13 21 -13
29 0 10 -9 16 -24 16 -14 0 -31 7 -40 15 -8 8 -22 15 -30 15 -9 0 -16 5 -16
10 0 6 -18 10 -40 10 -22 0 -40 4 -40 8 0 16 -37 52 -53 52 -8 0 -18 -6 -21
-12 -5 -10 -7 -10 -12 0 -3 6 -17 12 -30 12 -15 0 -24 6 -24 15 0 12 14 15 65
15 36 0 65 -4 65 -9z m557 -36 c8 -9 13 -19 10 -22 -6 -5 -37 21 -37 31 0 10
11 6 27 -9z m-993 -21 c9 -23 8 -24 -19 -24 -28 0 -30 5 -12 25 16 19 24 18
31 -1z m76 -14 c0 -5 13 -10 29 -10 16 0 32 -6 35 -12 5 -10 7 -10 12 0 9 19
24 14 24 -8 0 -17 -7 -20 -46 -20 -26 0 -51 6 -60 14 -16 17 -19 46 -4 46 6 0
10 -4 10 -10z m910 -40 c0 -5 -4 -10 -10 -10 -5 0 -10 5 -10 10 0 6 5 10 10
10 6 0 10 -4 10 -10z m-736 -16 c9 -3 16 -10 16 -15 0 -15 -40 -10 -56 6 -14
13 -13 15 4 15 11 0 27 -3 36 -6z m99 -1 c-7 -2 -13 -13 -13 -24 0 -10 -7 -19
-15 -19 -21 0 -19 38 3 43 23 6 40 7 25 0z m237 -13 c0 -5 -4 -10 -10 -10 -5
0 -10 5 -10 10 0 6 5 10 10 10 6 0 10 -4 10 -10z m420 0 c0 -5 -4 -10 -10 -10
-5 0 -10 5 -10 10 0 6 5 10 10 10 6 0 10 -4 10 -10z m-554 -24 c20 -20 18 -26
-11 -26 -18 0 -25 5 -25 20 0 23 16 26 36 6z m94 4 c0 -5 -4 -10 -10 -10 -5 0
-10 5 -10 10 0 6 5 10 10 10 6 0 10 -4 10 -10z m-570 -70 c0 -11 -4 -20 -10
-20 -5 0 -10 -12 -10 -26 0 -16 -12 -37 -30 -54 -16 -15 -30 -33 -30 -39 0 -6
-9 -11 -20 -11 -13 0 -20 -7 -20 -20 0 -11 -4 -20 -10 -20 -5 0 -10 9 -10 20
0 11 4 20 9 20 5 0 28 18 50 39 31 30 41 47 41 71 0 29 16 59 33 60 4 0 7 -9
7 -20z m553 8 c4 -10 8 -9 16 2 5 8 13 11 17 8 3 -4 -2 -15 -12 -25 -12 -13
-19 -14 -22 -5 -2 6 -12 12 -23 12 -10 0 -19 5 -19 10 0 14 37 12 43 -2z m127
-17 c0 -16 -6 -31 -12 -33 -9 -3 -8 -9 5 -22 19 -20 20 -25 7 -46 -5 -8 -13
-11 -17 -6 -4 5 -2 11 5 13 19 7 14 23 -8 23 -11 0 -20 5 -20 10 0 6 -7 10
-15 10 -10 0 -15 10 -15 30 0 20 5 30 15 30 8 0 15 5 15 10 0 6 9 10 20 10 15
0 20 -7 20 -29z m-780 -1 c0 -5 -4 -10 -10 -10 -5 0 -10 5 -10 10 0 6 5 10 10
10 6 0 10 -4 10 -10z m850 -80 c0 -5 7 -10 16 -10 17 0 44 -23 44 -38 0 -6 6
-13 13 -15 9 -4 8 -8 -3 -17 -11 -9 -12 -13 -2 -17 14 -6 16 -43 2 -43 -5 0
-10 5 -10 10 0 6 -9 10 -20 10 -22 0 -29 35 -7 43 7 2 8 8 3 13 -5 5 -11 4
-13 -3 -6 -18 -23 -16 -23 2 0 8 -4 15 -10 15 -5 0 -10 14 -10 30 0 17 5 30
10 30 6 0 10 -4 10 -10z m390 -39 c0 -5 -7 -11 -15 -15 -9 -3 -15 0 -15 9 0 8
7 15 15 15 8 0 15 -4 15 -9z m-130 -51 c0 -16 -4 -30 -10 -30 -5 0 -10 -11
-10 -25 0 -18 -5 -25 -20 -25 -11 0 -20 -4 -20 -10 0 -5 5 -10 10 -10 6 0 10
-4 10 -10 0 -5 -9 -10 -20 -10 -11 0 -20 5 -20 10 0 19 -53 10 -71 -12 -11
-11 -22 -18 -27 -13 -4 4 -1 10 6 12 6 3 12 13 12 23 0 10 -6 21 -12 23 -7 3
-3 6 10 6 12 1 22 6 22 11 0 6 7 10 15 10 8 0 15 -4 15 -10 0 -5 11 -10 25
-10 17 0 25 5 25 18 0 10 9 24 20 32 11 8 20 22 20 32 0 10 5 18 10 18 6 0 10
-13 10 -30z m-1170 -20 c0 -5 -4 -10 -10 -10 -5 0 -10 5 -10 10 0 6 5 10 10
10 6 0 10 -4 10 -10z m910 -90 c0 -5 -4 -10 -10 -10 -5 0 -10 5 -10 10 0 6 5
10 10 10 6 0 10 -4 10 -10z m287 -5 c8 -9 13 -19 10 -22 -6 -5 -37 21 -37 31
0 10 11 6 27 -9z m-101 -39 c20 -20 17 -36 -6 -36 -11 0 -20 -6 -20 -12 0 -10
-2 -10 -8 -2 -4 7 -18 14 -32 17 l-25 4 27 2 c17 1 29 8 33 21 8 24 12 25 31
6z m-186 -21 c0 -8 -4 -15 -10 -15 -5 0 -10 7 -10 15 0 8 5 15 10 15 6 0 10
-7 10 -15z m280 -65 c0 -33 -4 -60 -10 -60 -5 0 -10 -20 -10 -45 0 -25 -4 -45
-10 -45 -5 0 -10 -9 -10 -20 0 -11 -4 -20 -10 -20 -5 0 -10 -19 -10 -41 0 -30
-6 -47 -22 -60 -26 -23 -38 -24 -38 -4 0 8 5 15 10 15 6 0 10 5 10 10 0 6 -7
10 -15 10 -8 0 -15 5 -15 10 0 6 7 10 15 10 20 0 19 36 0 44 -30 11 4 86 39
86 9 0 16 7 16 15 0 8 5 15 10 15 6 0 10 16 10 35 0 19 5 35 10 35 15 0 12 57
-2 63 -7 3 -3 6 10 6 20 1 22 -3 22 -59z m-220 -120 c0 -5 -4 -10 -10 -10 -5
0 -10 5 -10 10 0 6 5 10 10 10 6 0 10 -4 10 -10z m-60 -49 c0 -11 -9 -23 -20
-26 -18 -6 -20 -15 -20 -91 0 -101 -19 -116 -22 -16 -2 94 -1 100 24 127 28
29 38 31 38 6z m120 -81 c0 -5 -4 -10 -10 -10 -5 0 -10 5 -10 10 0 6 5 10 10
10 6 0 10 -4 10 -10z m-120 -20 c0 -5 -4 -10 -10 -10 -5 0 -10 5 -10 10 0 6 5
10 10 10 6 0 10 -4 10 -10z m100 -20 c0 -5 -4 -10 -10 -10 -5 0 -10 5 -10 10
0 6 5 10 10 10 6 0 10 -4 10 -10z m400 -26 c0 -3 -7 -12 -15 -21 -20 -19 -32
-10 -14 11 14 15 29 21 29 10z m-320 -34 c0 -11 -4 -20 -10 -20 -5 0 -10 2
-10 4 0 2 -3 11 -6 20 -4 11 -1 16 10 16 9 0 16 -8 16 -20z m120 10 c0 -5 -4
-10 -10 -10 -5 0 -10 5 -10 10 0 6 5 10 10 10 6 0 10 -4 10 -10z m140 0 c0 -5
-7 -10 -15 -10 -8 0 -15 5 -15 10 0 6 7 10 15 10 8 0 15 -4 15 -10z m-580 -20
c0 -5 -9 -10 -20 -10 -11 0 -20 5 -20 10 0 6 9 10 20 10 11 0 20 -4 20 -10z
m-230 -40 c0 -12 -44 -24 -62 -17 -7 3 -1 6 15 6 15 1 27 6 27 11 0 6 5 10 10
10 6 0 10 -4 10 -10z m527 -37 c-3 -10 -5 -2 -5 17 0 19 2 27 5 18 2 -10 2
-26 0 -35z m-617 2 c0 -8 -9 -15 -20 -15 -11 0 -20 7 -20 15 0 8 9 15 20 15
11 0 20 -7 20 -15z m720 -20 c0 -19 5 -35 10 -35 6 0 10 -4 10 -10 0 -5 -9
-10 -20 -10 -11 0 -20 -4 -20 -10 0 -5 -4 -10 -10 -10 -5 0 -10 9 -10 20 0 11
5 20 10 20 6 0 10 16 10 35 0 19 5 35 10 35 6 0 10 -16 10 -35z m-770 0 c0 -3
-11 -17 -25 -30 -29 -30 -35 -31 -35 -5 0 13 7 20 20 20 11 0 20 5 20 10 0 6
5 10 10 10 6 0 10 -2 10 -5z m990 -15 c0 -11 -4 -20 -10 -20 -5 0 -10 9 -10
20 0 11 5 20 10 20 6 0 10 -9 10 -20z m-326 -31 c11 -58 8 -79 -14 -79 -11 0
-20 7 -20 15 0 8 7 15 15 15 8 0 15 9 15 20 0 11 -7 20 -15 20 -8 0 -15 9 -15
20 0 32 27 23 34 -11z m236 1 c0 -5 -4 -10 -10 -10 -5 0 -10 5 -10 10 0 6 5
10 10 10 6 0 10 -4 10 -10z m-590 -20 c0 -5 -9 -10 -20 -10 -11 0 -20 5 -20
10 0 6 9 10 20 10 11 0 20 -4 20 -10z m-390 -20 c0 -5 -6 -10 -14 -10 -8 0
-22 -3 -32 -7 -16 -6 -17 -5 -4 10 16 18 50 23 50 7z m307 -12 c-3 -8 -6 -5
-6 6 -1 11 2 17 5 13 3 -3 4 -12 1 -19z m-27 -18 c0 -5 -4 -10 -10 -10 -5 0
-10 5 -10 10 0 6 5 10 10 10 6 0 10 -4 10 -10z m-40 -16 c0 -3 -7 -12 -15 -21
-20 -19 -32 -10 -14 11 14 15 29 21 29 10z m510 -24 c0 -5 -9 -10 -20 -10 -11
0 -20 5 -20 10 0 6 9 10 20 10 11 0 20 -4 20 -10z m-860 -20 c0 -5 -4 -10 -10
-10 -5 0 -10 5 -10 10 0 6 5 10 10 10 6 0 10 -4 10 -10z m590 -35 c0 -33 -4
-45 -15 -45 -8 0 -15 -4 -15 -10 0 -5 7 -10 15 -10 10 0 15 -11 15 -35 0 -24
-5 -35 -15 -35 -9 0 -15 -9 -15 -25 0 -16 6 -25 15 -25 8 0 15 -4 15 -10 0 -5
-7 -10 -15 -10 -9 0 -15 -9 -15 -25 0 -16 6 -25 15 -25 11 0 15 -12 15 -50 0
-41 -3 -50 -17 -51 -17 -1 -17 -2 0 -6 21 -5 23 -23 2 -23 -13 0 -15 -33 -15
-235 0 -202 2 -235 15 -235 8 0 15 -4 15 -10 0 -5 -7 -10 -15 -10 -8 0 -15 -4
-15 -10 0 -5 7 -10 15 -10 12 0 15 -18 15 -105 0 -87 -3 -105 -15 -105 -11 0
-15 -11 -15 -40 0 -22 -4 -40 -10 -40 -5 0 -10 5 -10 10 0 6 -9 10 -20 10 -11
0 -20 5 -20 10 0 6 -18 10 -40 10 -22 0 -40 5 -40 10 0 6 -10 10 -23 10 -12 0
-29 9 -37 20 -9 13 -26 20 -47 20 -18 0 -33 4 -33 9 0 5 -18 12 -40 16 -22 4
-40 11 -40 16 0 5 -5 9 -11 9 -12 0 -39 25 -39 35 0 8 -48 53 -79 75 -13 9
-21 25 -21 42 0 15 -4 28 -10 28 -5 0 -10 11 -10 25 0 16 -6 25 -15 25 -12 0
-15 14 -15 65 0 51 3 65 15 65 12 0 15 17 15 90 0 53 4 90 10 90 6 0 10 11 10
25 0 14 5 25 10 25 6 0 10 14 10 30 0 17 5 30 10 30 6 0 10 7 10 15 0 8 5 15
10 15 6 0 10 7 10 16 0 15 23 44 34 44 12 0 6 -38 -6 -44 -10 -5 -10 -7 0 -12
7 -3 12 -24 12 -50 0 -36 3 -44 19 -44 12 0 21 -9 25 -25 4 -14 13 -25 22 -25
14 0 24 6 59 38 7 6 18 12 24 12 6 0 11 5 11 10 0 6 14 10 30 10 36 0 37 6 8
32 -16 14 -19 21 -10 27 8 5 6 11 -8 21 -16 11 -20 26 -20 66 0 33 5 54 13 57
9 4 8 8 -3 17 -11 9 -12 13 -2 17 7 3 12 23 12 50 0 45 16 73 42 73 8 0 20 9
28 20 8 11 20 20 27 20 7 0 13 4 13 9 0 5 18 12 40 16 22 4 40 11 40 16 0 5 9
9 20 9 11 0 20 5 20 10 0 6 7 10 15 10 11 0 15 -12 15 -45z m-310 15 c0 -5 -4
-10 -10 -10 -5 0 -10 5 -10 10 0 6 5 10 10 10 6 0 10 -4 10 -10z m590 -150
c13 0 13 -177 0 -182 -8 -2 -15 -124 -19 -315 -1 -39 -3 -43 -26 -43 -14 0
-25 5 -25 10 0 6 5 10 10 10 15 0 12 97 -2 104 -10 5 -10 7 0 12 15 7 17 204
2 204 -5 0 -10 5 -10 10 0 6 11 10 24 10 23 0 24 4 28 63 5 95 -1 137 -21 138
-14 1 -14 2 2 6 21 5 23 43 2 43 -8 0 -15 9 -15 20 0 11 7 20 15 20 8 0 16 8
17 18 1 9 4 -16 5 -55 2 -40 8 -73 13 -73z m-940 110 c0 -13 -7 -20 -20 -20
-23 0 -25 5 -7 25 17 20 27 18 27 -5z m-40 -50 c0 -5 -9 -10 -20 -10 -11 0
-20 5 -20 10 0 6 9 10 20 10 11 0 20 -4 20 -10z m-37 -37 c-15 -3 -23 -12 -23
-24 0 -12 -7 -19 -20 -19 -16 0 -20 -7 -20 -35 0 -19 -4 -35 -10 -35 -5 0 -10
-7 -10 -15 0 -9 -9 -15 -22 -14 -15 1 -17 3 -7 6 11 2 19 19 22 46 3 23 11 43
16 45 6 2 11 12 11 22 0 18 22 27 65 27 16 0 16 -1 -2 -4z m277 -23 c0 -11 -4
-20 -10 -20 -5 0 -10 -7 -10 -15 0 -8 -4 -15 -10 -15 -5 0 -10 7 -10 15 0 8 5
15 10 15 6 0 10 9 10 20 0 11 5 20 10 20 6 0 10 -9 10 -20z m550 0 c0 -11 -4
-20 -10 -20 -6 0 -10 -33 -10 -80 0 -92 -15 -108 -22 -23 -8 90 1 143 23 143
12 0 19 -7 19 -20z m-610 -80 c0 -5 -4 -10 -10 -10 -5 0 -10 -11 -10 -25 0
-14 -4 -25 -10 -25 -14 0 -12 38 3 55 14 17 27 19 27 5z m-340 -80 c0 -11 -4
-20 -10 -20 -5 0 -10 -9 -10 -20 0 -11 -4 -20 -10 -20 -5 0 -10 -7 -10 -15 0
-8 -4 -15 -10 -15 -5 0 -10 -18 -10 -39 0 -31 -4 -41 -20 -46 -11 -3 -20 -15
-20 -26 0 -10 -4 -19 -10 -19 -5 0 -10 -9 -10 -20 0 -11 -4 -20 -10 -20 -5 0
-10 -22 -10 -50 0 -27 -4 -50 -10 -50 -5 0 -10 -13 -10 -30 0 -16 -4 -30 -10
-30 -5 0 -10 18 -10 40 0 22 5 40 10 40 6 0 10 23 10 50 0 28 5 50 10 50 6 0
10 14 10 30 0 17 5 30 10 30 6 0 10 7 10 15 0 8 5 15 10 15 6 0 10 9 10 20 0
11 5 20 10 20 6 0 10 9 10 20 0 11 5 20 10 20 6 0 10 6 10 13 0 7 9 19 20 27
11 8 20 22 20 32 0 10 5 18 10 18 6 0 10 -9 10 -20z m270 -10 c0 -5 -4 -10
-10 -10 -5 0 -10 5 -10 10 0 6 5 10 10 10 6 0 10 -4 10 -10z m660 -70 c0 -5
-4 -10 -10 -10 -5 0 -10 5 -10 10 0 6 5 10 10 10 6 0 10 -4 10 -10z m140 -20
c0 -5 -4 -10 -10 -10 -5 0 -10 5 -10 10 0 6 5 10 10 10 6 0 10 -4 10 -10z
m-140 -40 c0 -5 -4 -10 -10 -10 -5 0 -10 5 -10 10 0 6 5 10 10 10 6 0 10 -4
10 -10z m-730 -25 c0 -8 -4 -15 -10 -15 -5 0 -10 -9 -10 -20 0 -11 -4 -20 -10
-20 -14 0 -12 38 3 55 16 19 27 19 27 0z m730 -75 c0 -11 -4 -20 -10 -20 -5 0
-10 9 -10 20 0 11 5 20 10 20 6 0 10 -9 10 -20z m-750 -10 c0 -5 -4 -10 -10
-10 -6 0 -10 -33 -10 -80 0 -44 -2 -80 -4 -80 -2 0 -11 -3 -20 -6 -12 -5 -16
0 -16 19 0 14 6 28 13 30 9 4 8 8 -3 16 -13 10 -13 12 0 22 11 8 12 12 3 16
-20 7 -15 31 10 58 24 26 37 31 37 15z m750 -110 c0 -11 -4 -20 -10 -20 -5 0
-10 9 -10 20 0 11 5 20 10 20 6 0 10 -9 10 -20z m40 -30 c0 -5 -4 -10 -10 -10
-5 0 -10 5 -10 10 0 6 5 10 10 10 6 0 10 -4 10 -10z m-40 -20 c0 -5 -4 -10
-10 -10 -5 0 -10 5 -10 10 0 6 5 10 10 10 6 0 10 -4 10 -10z m-1100 -190 c6 0
10 -16 10 -35 0 -19 -4 -35 -9 -35 -15 0 -21 42 -19 145 l2 100 3 -87 c2 -49
8 -88 13 -88z m1100 140 c0 -5 -4 -10 -10 -10 -5 0 -10 5 -10 10 0 6 5 10 10
10 6 0 10 -4 10 -10z m-770 -30 c0 -11 5 -20 10 -20 6 0 10 -7 10 -15 0 -8 -4
-15 -10 -15 -5 0 -10 7 -10 15 0 8 -4 15 -10 15 -5 0 -10 9 -10 20 0 11 5 20
10 20 6 0 10 -9 10 -20z m770 -10 c0 -5 -4 -10 -10 -10 -5 0 -10 5 -10 10 0 6
5 10 10 10 6 0 10 -4 10 -10z m-724 -74 c8 -8 14 -22 14 -30 0 -9 4 -16 10
-16 5 0 12 -16 16 -35 3 -19 10 -35 15 -35 5 0 9 -7 9 -15 0 -8 7 -15 15 -15
8 0 15 -4 15 -10 0 -5 -11 -10 -25 -10 -20 0 -25 5 -25 24 0 14 -7 31 -15 40
-8 8 -15 24 -15 35 0 12 -4 21 -10 21 -5 0 -10 9 -10 20 0 11 -4 20 -10 20 -5
0 -10 5 -10 10 0 14 9 12 26 -4z m724 -26 c0 -11 -4 -20 -10 -20 -5 0 -10 9
-10 20 0 11 5 20 10 20 6 0 10 -9 10 -20z m190 0 c0 -11 -7 -20 -15 -20 -8 0
-15 9 -15 20 0 11 7 20 15 20 8 0 15 -9 15 -20z m-130 -55 c0 -8 5 -15 10 -15
6 0 10 -4 10 -10 0 -5 -9 -10 -20 -10 -11 0 -20 5 -20 10 0 6 -4 10 -10 10 -5
0 -10 -11 -10 -25 0 -14 -4 -25 -10 -25 -5 0 -10 15 -10 34 0 19 -6 37 -12 39
-7 3 6 6 30 6 31 1 42 -3 42 -14z m-1130 -83 c0 -36 5 -51 20 -62 11 -8 20
-18 20 -22 0 -4 -9 -8 -20 -8 -13 0 -20 7 -20 20 0 11 -4 20 -10 20 -5 0 -10
16 -10 35 0 19 -4 35 -10 35 -5 0 -10 7 -10 15 0 8 9 15 20 15 17 0 20 -7 20
-48z m1170 8 c0 -5 -9 -10 -20 -10 -11 0 -20 5 -20 10 0 6 9 10 20 10 11 0 20
-4 20 -10z m-80 -20 c0 -5 -4 -10 -10 -10 -5 0 -10 5 -10 10 0 6 5 10 10 10 6
0 10 -4 10 -10z m-562 -36 c8 -8 11 -18 7 -22 -4 -4 -10 -1 -12 6 -3 6 -13 12
-24 12 -10 0 -19 4 -19 9 0 5 -8 12 -17 14 -10 2 -3 2 16 0 19 -2 41 -11 49
-19z m568 2 c22 -23 18 -66 -6 -66 -17 0 -20 7 -20 40 0 43 4 47 26 26z
m-1036 -86 c0 -11 -4 -20 -10 -20 -5 0 -10 9 -10 20 0 11 5 20 10 20 6 0 10
-9 10 -20z m680 -9 c0 -5 10 -12 23 -14 16 -3 13 -5 -10 -6 -23 -1 -33 3 -33
14 0 8 5 15 10 15 6 0 10 -4 10 -9z m436 -6 c14 -13 13 -15 -9 -15 -47 0 -117
13 -117 21 0 16 110 10 126 -6z m81 -11 c-3 -3 -12 -4 -19 -1 -8 3 -5 6 6 6
11 1 17 -2 13 -5z m-401 -18 c19 -20 18 -26 -7 -26 -19 0 -49 21 -49 34 0 12
42 6 56 -8z m144 -36 c0 -5 11 -10 25 -10 14 0 25 -4 25 -10 0 -5 -18 -10 -40
-10 -22 0 -40 5 -40 10 0 6 -9 10 -20 10 -11 0 -20 -4 -20 -10 0 -5 -9 -10
-20 -10 -13 0 -20 7 -20 20 0 18 7 20 55 20 30 0 55 -4 55 -10z m-826 -26 c4
-9 4 -19 1 -22 -3 -3 -5 0 -5 6 0 7 -7 12 -15 12 -8 0 -15 5 -15 10 0 16 27
11 34 -6z m916 6 c0 -5 -4 -10 -10 -10 -5 0 -10 5 -10 10 0 6 5 10 10 10 6 0
10 -4 10 -10z m690 -10 c0 -11 -4 -20 -10 -20 -5 0 -10 -11 -10 -25 0 -14 -4
-25 -10 -25 -5 0 -10 9 -10 20 0 13 -7 20 -20 20 -11 0 -20 7 -20 15 0 10 10
15 30 15 17 0 30 5 30 10 0 6 5 10 10 10 6 0 10 -9 10 -20z m-610 -10 c0 -5
-9 -10 -20 -10 -11 0 -20 5 -20 10 0 6 9 10 20 10 11 0 20 -4 20 -10z m-912
-32 c2 -4 12 -8 23 -8 10 0 19 -4 19 -10 0 -5 14 -10 30 -10 17 0 30 -4 30
-10 0 -5 11 -10 25 -10 20 0 25 -5 25 -25 0 -14 -4 -25 -10 -25 -5 0 -10 7
-10 15 0 9 -9 15 -25 15 -14 0 -25 5 -25 10 0 6 -9 10 -20 10 -11 0 -20 5 -20
10 0 6 -9 10 -20 10 -11 0 -20 5 -20 10 0 6 -13 10 -30 10 -20 0 -30 5 -30 15
0 12 7 14 28 9 15 -4 29 -11 30 -16z m1270 15 c-16 -2 -28 -9 -28 -14 0 -5
-29 -9 -65 -9 -80 0 -86 18 -7 23 85 5 134 5 100 0z m-28 -73 c0 -5 -4 -10
-10 -10 -5 0 -10 5 -10 10 0 6 5 10 10 10 6 0 10 -4 10 -10z m-1040 -25 c0 -9
12 -18 30 -21 17 -4 30 -10 30 -15 0 -5 9 -9 20 -9 11 0 20 -4 20 -10 0 -5 -9
-10 -20 -10 -11 0 -20 5 -20 10 0 6 -12 10 -26 10 -14 0 -32 6 -40 14 -16 17
-19 46 -4 46 6 0 10 -7 10 -15z m1280 -60 c0 -38 -3 -45 -20 -45 -13 0 -20 7
-20 20 0 11 5 20 10 20 6 0 10 11 10 25 0 14 5 25 10 25 6 0 10 -20 10 -45z
m-650 5 c0 -5 -4 -10 -10 -10 -5 0 -10 5 -10 10 0 6 5 10 10 10 6 0 10 -4 10
-10z m-490 -20 c0 -5 -4 -10 -10 -10 -5 0 -10 5 -10 10 0 6 5 10 10 10 6 0 10
-4 10 -10z m188 -57 c-10 -2 -26 -2 -35 0 -10 3 -2 5 17 5 19 0 27 -2 18 -5z
m62 -13 c0 -5 -7 -10 -15 -10 -8 0 -15 5 -15 10 0 6 7 10 15 10 8 0 15 -4 15
-10z m40 0 c0 -5 -4 -10 -10 -10 -5 0 -10 5 -10 10 0 6 5 10 10 10 6 0 10 -4
10 -10z m804 -6 c9 -24 7 -27 -9 -10 -17 17 -19 26 -6 26 5 0 12 -7 15 -16z
m46 6 c0 -5 -4 -10 -10 -10 -5 0 -10 5 -10 10 0 6 5 10 10 10 6 0 10 -4 10
-10z m-700 -20 c0 -5 -25 -10 -55 -10 -30 0 -55 5 -55 10 0 6 25 10 55 10 30
0 55 -4 55 -10z m30 0 c0 -5 -4 -10 -10 -10 -5 0 -10 5 -10 10 0 6 5 10 10 10
6 0 10 -4 10 -10z m100 0 c0 -5 -9 -10 -20 -10 -11 0 -20 5 -20 10 0 6 9 10
20 10 11 0 20 -4 20 -10z m40 0 c0 -5 -4 -10 -10 -10 -5 0 -10 5 -10 10 0 6 5
10 10 10 6 0 10 -4 10 -10z m80 0 c0 -5 -4 -10 -10 -10 -5 0 -10 5 -10 10 0 6
5 10 10 10 6 0 10 -4 10 -10z m180 -20 c0 -5 -4 -10 -10 -10 -5 0 -10 5 -10
10 0 6 5 10 10 10 6 0 10 -4 10 -10z m30 0 c0 -5 -4 -10 -10 -10 -5 0 -10 5
-10 10 0 6 5 10 10 10 6 0 10 -4 10 -10z m150 0 c0 -5 -13 -10 -30 -10 -16 0
-30 -4 -30 -10 0 -5 -9 -10 -20 -10 -13 0 -20 7 -20 20 0 17 7 20 50 20 28 0
50 -4 50 -10z"/>
<path d="M1470 3940 c0 -5 5 -10 10 -10 6 0 10 5 10 10 0 6 -4 10 -10 10 -5 0
-10 -4 -10 -10z"/>
<path d="M990 3670 c0 -5 9 -10 20 -10 11 0 20 5 20 10 0 6 -9 10 -20 10 -11
0 -20 -4 -20 -10z"/>
<path d="M2180 3780 c0 -5 -9 -10 -20 -10 -11 0 -20 -4 -20 -10 0 -5 14 -10
30 -10 23 0 30 4 30 20 0 11 -4 20 -10 20 -5 0 -10 -4 -10 -10z"/>
<path d="M2224 3724 c3 -9 6 -18 6 -20 0 -2 5 -4 10 -4 6 0 10 9 10 20 0 12
-7 20 -16 20 -11 0 -14 -5 -10 -16z"/>
<path d="M1600 3600 c0 -5 5 -10 10 -10 6 0 10 5 10 10 0 6 -4 10 -10 10 -5 0
-10 -4 -10 -10z"/>
<path d="M1860 3290 c0 -5 5 -10 10 -10 6 0 10 5 10 10 0 6 -4 10 -10 10 -5 0
-10 -4 -10 -10z"/>
<path d="M2043 2845 c-28 -30 -29 -35 -3 -35 13 0 20 7 20 20 0 11 5 20 10 20
6 0 10 5 10 10 0 16 -13 11 -37 -15z"/>
<path d="M3490 2740 c0 -13 -7 -20 -20 -20 -11 0 -20 -4 -20 -9 0 -4 -19 -11
-42 -14 -24 -3 -44 -11 -46 -16 -2 -6 -12 -11 -23 -11 -10 0 -19 -4 -19 -10 0
-5 -16 -10 -35 -10 -19 0 -35 5 -35 10 0 18 -31 10 -55 -15 -14 -13 -25 -31
-25 -40 0 -8 -9 -15 -20 -15 -18 0 -20 -7 -20 -60 0 -35 -4 -60 -10 -60 -6 0
-21 -11 -34 -25 -13 -14 -31 -25 -40 -25 -9 0 -16 -4 -16 -10 0 -5 -9 -10 -20
-10 -11 0 -20 -4 -20 -10 0 -5 -12 -10 -26 -10 -26 0 -54 -20 -54 -39 0 -6 5
-11 10 -11 6 0 10 -7 10 -16 0 -26 26 -44 64 -44 20 0 36 -4 36 -10 0 -5 14
-10 30 -10 20 0 30 -5 30 -15 0 -8 9 -15 20 -15 11 0 20 -4 20 -10 0 -5 9 -10
20 -10 11 0 20 5 20 10 0 6 9 10 20 10 11 0 20 -4 20 -10 0 -5 13 -10 29 -10
16 0 31 -6 34 -12 3 -9 11 -5 26 11 11 13 21 25 21 27 0 2 -11 14 -25 28 -14
14 -25 32 -25 41 0 8 -4 15 -10 15 -5 0 -10 16 -10 35 0 19 -4 35 -10 35 -5 0
-10 9 -10 20 0 15 7 20 26 20 28 0 84 49 84 73 0 9 6 18 13 20 9 4 8 8 -3 17
-11 9 -12 13 -2 17 6 2 12 11 12 19 0 8 7 14 15 14 8 0 25 11 39 25 25 25 56
33 56 15 0 -5 -4 -10 -10 -10 -5 0 -10 -13 -10 -29 0 -16 -6 -31 -12 -34 -7
-2 -10 -8 -6 -12 8 -9 38 18 38 34 0 6 9 11 19 11 20 0 51 25 51 41 0 5 -7 9
-15 9 -8 0 -15 -4 -15 -10 0 -5 -4 -10 -10 -10 -5 0 -10 9 -10 20 0 19 7 20
89 20 62 0 91 4 94 13 4 9 8 8 16 -3 10 -13 12 -13 22 0 8 11 12 12 16 3 2 -7
11 -13 18 -13 7 0 16 6 19 13 5 10 7 10 12 0 3 -7 23 -13 45 -13 21 0 39 -4
39 -10 0 -5 14 -10 30 -10 17 0 30 -4 30 -10 0 -5 7 -10 15 -10 8 0 15 -4 15
-9 0 -5 25 -13 55 -16 37 -5 55 -12 55 -21 0 -8 5 -14 10 -14 6 0 10 -9 10
-20 0 -22 16 -27 22 -8 3 7 20 -3 43 -26 27 -27 34 -40 25 -46 -8 -5 -3 -7 13
-7 28 0 77 -43 77 -68 0 -8 9 -15 20 -15 11 0 20 -7 20 -15 0 -8 5 -15 10 -15
6 0 10 -13 10 -29 0 -16 6 -32 13 -35 10 -5 10 -7 0 -12 -20 -9 -15 -24 7 -24
11 0 20 -6 20 -13 0 -7 -9 -19 -20 -27 -26 -19 -25 -48 3 -73 15 -13 18 -21
10 -24 -7 -3 -13 -11 -13 -18 0 -7 -6 -15 -12 -18 -8 -2 -9 -8 -4 -13 5 -5 11
-4 13 4 10 28 23 9 23 -34 0 -41 2 -45 20 -39 14 5 20 2 20 -9 0 -9 -4 -16
-10 -16 -5 0 -10 -13 -10 -30 0 -23 -4 -30 -20 -30 -13 0 -20 7 -20 20 0 11 5
20 10 20 6 0 10 9 10 20 0 11 -4 20 -10 20 -5 0 -10 7 -10 15 0 8 -4 15 -10
15 -5 0 -10 -15 -10 -34 0 -19 -6 -37 -12 -40 -10 -5 -10 -7 0 -12 7 -3 12
-26 12 -60 0 -47 -2 -54 -20 -54 -11 0 -20 5 -20 10 0 6 5 10 10 10 6 0 10 9
10 20 0 11 -3 20 -6 20 -10 0 -34 -28 -34 -40 0 -16 47 -60 65 -60 8 0 15 -4
15 -10 0 -5 -9 -10 -20 -10 -11 0 -20 -4 -20 -10 0 -5 5 -10 10 -10 6 0 10 -4
10 -10 0 -5 -13 -10 -30 -10 -23 0 -30 5 -30 19 0 11 6 21 12 23 9 3 8 10 -5
22 -10 10 -21 15 -25 12 -3 -4 0 -12 8 -17 11 -8 12 -12 3 -16 -7 -2 -13 -18
-13 -34 0 -16 -4 -29 -10 -29 -5 0 -10 -4 -10 -10 0 -14 38 -12 43 3 2 6 8 9
12 5 4 -4 -5 -19 -21 -35 -17 -17 -29 -23 -32 -15 -7 22 -32 13 -32 -12 0 -14
-7 -31 -15 -40 -8 -8 -15 -22 -15 -30 0 -9 -8 -16 -20 -16 -11 0 -20 -5 -20
-11 0 -19 -28 -39 -54 -39 -34 0 -33 18 1 26 32 8 73 47 73 68 0 8 6 16 13 19
6 2 9 8 5 12 -9 10 -38 -19 -38 -39 0 -19 -16 -21 -23 -3 -2 7 -8 8 -13 3 -5
-5 -4 -11 4 -13 23 -9 12 -23 -18 -23 -19 0 -30 -5 -30 -14 0 -8 -6 -17 -12
-20 -10 -5 -10 -7 0 -12 12 -6 18 -44 6 -44 -13 0 -34 30 -34 49 0 12 -4 21
-10 21 -5 0 -10 -11 -10 -25 0 -14 5 -25 10 -25 6 0 10 -9 10 -20 0 -22 -25
-27 -34 -7 -5 10 -7 10 -12 0 -9 -20 -34 -15 -34 7 0 11 7 20 15 20 8 0 15 5
15 10 0 6 -11 10 -25 10 -18 0 -25 -5 -25 -20 0 -17 -7 -20 -40 -20 -22 0 -40
-4 -40 -10 0 -5 -13 -10 -30 -10 -30 0 -40 -14 -17 -24 6 -3 1 -4 -13 -1 -14
2 -32 0 -40 -5 -13 -9 -13 -11 0 -21 11 -8 12 -12 3 -16 -7 -2 -13 -11 -13
-19 0 -8 -9 -14 -20 -14 -22 0 -27 -15 -7 -24 10 -5 10 -7 0 -12 -22 -10 -14
-45 17 -74 17 -15 30 -35 30 -44 0 -18 7 -19 102 -20 38 -1 68 3 68 7 0 12 27
37 39 37 6 0 11 -4 11 -10 0 -5 5 -10 10 -10 6 0 10 9 10 20 0 15 7 20 25 20
14 0 25 -4 25 -10 0 -5 -9 -10 -20 -10 -11 0 -20 -4 -20 -10 0 -5 23 -10 50
-10 39 0 50 4 50 16 0 20 24 44 44 44 9 0 16 -8 16 -20 0 -15 7 -20 25 -20 14
0 25 -4 25 -10 0 -5 11 -10 25 -10 18 0 25 5 25 20 0 11 5 20 10 20 6 0 10 9
10 20 0 11 3 20 6 20 10 0 34 -28 34 -40 0 -17 26 -40 44 -40 11 0 16 9 16 30
0 23 4 30 20 30 11 0 20 -4 20 -10 0 -5 23 -10 50 -10 43 0 50 -3 50 -20 0
-11 -7 -20 -15 -20 -8 0 -15 -4 -15 -10 0 -5 4 -10 9 -10 5 0 18 -3 28 -6 14
-5 15 -4 4 4 -12 9 -12 13 2 26 17 18 47 21 47 6 0 -5 9 -10 20 -10 11 0 20
-7 20 -15 0 -8 7 -15 15 -15 10 0 15 -10 15 -30 0 -21 5 -30 16 -30 22 0 44
-25 44 -49 0 -14 6 -21 20 -21 13 0 20 -7 20 -20 0 -11 5 -20 10 -20 6 0 10
-11 10 -25 0 -14 -4 -25 -10 -25 -5 0 -10 7 -10 15 0 8 -4 15 -10 15 -5 0 -10
9 -10 20 0 11 -4 20 -10 20 -5 0 -10 -16 -10 -35 0 -19 5 -35 10 -35 14 0 12
-47 -2 -54 -10 -5 -10 -7 0 -12 23 -11 13 -43 -15 -50 -54 -14 -66 -39 -59
-131 5 -65 3 -85 -9 -97 -8 -8 -15 -19 -15 -25 0 -6 -4 -11 -10 -11 -5 0 -10
-9 -10 -20 0 -24 -42 -70 -65 -70 -8 0 -15 -9 -15 -20 0 -25 52 -80 58 -62 5
15 152 17 152 2 0 -5 25 -10 55 -10 30 0 55 -4 55 -10 0 -5 7 -10 15 -10 8 0
15 5 15 10 0 6 14 10 30 10 28 0 30 2 30 40 0 33 -3 40 -20 40 -15 0 -20 7
-20 25 0 16 -6 25 -15 25 -10 0 -15 11 -15 35 0 19 -4 35 -10 35 -5 0 -10 7
-10 15 0 8 -4 15 -10 15 -5 0 -10 9 -10 20 0 13 7 20 19 20 11 0 23 9 26 20 3
11 11 20 16 20 5 0 9 20 9 45 0 25 -4 45 -10 45 -6 0 -10 31 -10 74 0 128 -10
195 -31 201 -13 4 -19 16 -19 36 0 24 -4 29 -25 29 -18 0 -25 5 -25 20 0 13
-7 20 -20 20 -11 0 -20 5 -20 10 0 17 -47 60 -65 60 -8 0 -15 5 -15 10 0 6 -7
10 -15 10 -8 0 -15 9 -15 20 0 11 -3 20 -7 20 -108 7 -159 14 -161 21 -2 5
-37 9 -78 9 -43 0 -74 4 -74 10 0 6 -37 10 -90 10 -53 0 -90 -4 -90 -10 0 -6
-28 -10 -65 -10 -36 0 -65 -4 -65 -9 0 -5 -20 -12 -45 -15 -25 -4 -45 -11 -45
-17 0 -5 -13 -9 -30 -9 -20 0 -30 5 -30 15 0 8 9 15 20 15 11 0 20 5 20 10 0
6 14 10 30 10 17 0 30 5 30 10 0 6 11 10 25 10 16 0 25 6 25 15 0 8 7 15 15
15 8 0 15 5 15 10 0 6 9 10 20 10 11 0 20 4 20 9 0 5 17 12 38 16 21 3 45 15
52 26 8 10 22 19 31 19 10 0 19 11 23 30 3 17 12 30 20 30 8 0 26 11 40 25 14
14 30 25 36 25 16 0 40 26 40 44 0 8 9 18 20 21 11 3 20 14 20 23 0 10 9 24
19 32 11 7 23 31 26 52 4 21 11 38 16 38 5 0 9 14 9 30 0 17 5 30 10 30 6 0
10 28 10 65 0 37 4 65 10 65 6 0 10 25 10 55 0 30 -4 55 -10 55 -5 0 -10 20
-10 45 0 25 -4 45 -10 45 -5 0 -10 18 -10 40 0 22 -4 40 -9 40 -5 0 -12 24
-15 53 -5 36 -13 58 -26 67 -11 8 -20 21 -20 28 0 8 -13 27 -30 42 -21 19 -30
37 -30 59 0 28 -3 31 -30 31 -16 0 -30 5 -30 10 0 6 -11 10 -25 10 -21 0 -25
5 -25 30 0 28 -3 30 -35 30 -28 0 -35 4 -35 20 0 11 5 20 10 20 6 0 10 5 10
10 0 6 -9 10 -20 10 -11 0 -20 -4 -20 -10 0 -5 -9 -10 -20 -10 -12 0 -20 7
-20 16 0 22 -32 53 -38 36 -5 -17 -22 -15 -22 3 0 8 -7 15 -15 15 -9 0 -12 -6
-9 -17 4 -11 3 -14 -3 -6 -4 6 -30 14 -58 18 -31 5 -57 16 -68 29 -15 17 -20
18 -28 6 -8 -11 -12 -12 -16 -2 -2 6 -20 12 -39 12 -19 0 -34 5 -34 10 0 14
-37 12 -44 -2 -5 -10 -7 -10 -12 0 -3 6 -12 12 -19 12 -7 0 -16 -6 -18 -12 -4
-10 -8 -9 -16 2 -10 13 -12 13 -21 0 -9 -13 -11 -13 -19 0 -8 12 -13 11 -29
-8 -24 -27 -42 -28 -42 -2 0 11 -4 20 -10 20 -5 0 -10 -9 -10 -20z m870 -574
c0 -8 6 -16 13 -19 6 -2 9 -8 5 -12 -8 -9 -38 18 -38 34 0 6 5 11 10 11 6 0
10 -6 10 -14z m40 -126 c0 -22 -4 -40 -10 -40 -5 0 -10 18 -10 40 0 22 5 40
10 40 6 0 10 -18 10 -40z m-20 -201 c0 -27 -19 -59 -34 -59 -3 0 -6 14 -6 30
0 17 5 30 10 30 6 0 10 7 10 15 0 8 5 15 10 15 6 0 10 -14 10 -31z m-580 -599
c0 -5 -4 -10 -10 -10 -5 0 -10 5 -10 10 0 6 5 10 10 10 6 0 10 -4 10 -10z
m380 -20 c0 -5 -4 -10 -10 -10 -5 0 -10 5 -10 10 0 6 5 10 10 10 6 0 10 -4 10
-10z m60 0 c0 -5 -11 -10 -25 -10 -14 0 -25 5 -25 10 0 6 11 10 25 10 14 0 25
-4 25 -10z m-180 -20 c0 -5 -4 -10 -10 -10 -5 0 -10 5 -10 10 0 6 5 10 10 10
6 0 10 -4 10 -10z m280 0 c0 -5 -4 -10 -10 -10 -5 0 -10 5 -10 10 0 6 5 10 10
10 6 0 10 -4 10 -10z"/>
<path d="M4160 2620 c0 -5 5 -10 10 -10 6 0 10 5 10 10 0 6 -4 10 -10 10 -5 0
-10 -4 -10 -10z"/>
<path d="M4220 2565 c0 -8 9 -15 19 -15 11 0 21 -6 24 -12 2 -8 8 -9 13 -4 5
5 4 11 -3 13 -7 3 -13 11 -13 19 0 8 -9 14 -20 14 -11 0 -20 -7 -20 -15z"/>
<path d="M4180 2390 c0 -5 9 -10 20 -10 11 0 20 5 20 10 0 6 -9 10 -20 10 -11
0 -20 -4 -20 -10z"/>
<path d="M4380 2390 c0 -5 5 -10 10 -10 6 0 10 5 10 10 0 6 -4 10 -10 10 -5 0
-10 -4 -10 -10z"/>
<path d="M4220 2320 c0 -5 9 -10 20 -10 11 0 20 5 20 10 0 6 -9 10 -20 10 -11
0 -20 -4 -20 -10z"/>
<path d="M4280 2310 c0 -11 5 -20 10 -20 6 0 10 9 10 20 0 11 -4 20 -10 20 -5
0 -10 -9 -10 -20z"/>
<path d="M4280 2185 c0 -19 5 -35 10 -35 6 0 10 16 10 35 0 19 -4 35 -10 35
-5 0 -10 -16 -10 -35z"/>
<path d="M2923 2082 c-21 -2 -34 -10 -38 -23 -4 -10 -15 -19 -26 -19 -10 0
-19 -4 -19 -10 0 -5 -9 -10 -20 -10 -12 0 -32 -10 -45 -22 -13 -13 -37 -34
-54 -48 -30 -25 -30 -27 -31 -117 0 -56 4 -93 10 -93 6 0 10 -8 10 -18 0 -10
9 -24 20 -32 11 -8 20 -22 20 -32 0 -10 7 -18 16 -18 8 0 22 -7 30 -15 9 -8
33 -15 55 -15 21 0 39 -4 39 -10 0 -5 18 -10 40 -10 l40 0 0 -40 c0 -22 -4
-40 -10 -40 -5 0 -10 -7 -10 -15 0 -8 -4 -15 -10 -15 -5 0 -10 -13 -10 -30 0
-23 -4 -30 -20 -30 -11 0 -20 -7 -20 -15 0 -8 -7 -15 -15 -15 -8 0 -15 -4 -15
-10 0 -5 -9 -10 -21 -10 -26 0 -49 -23 -49 -49 0 -12 -4 -21 -10 -21 -5 0 -10
-7 -10 -15 0 -9 -10 -15 -26 -15 -29 0 -54 -21 -54 -44 0 -9 -4 -16 -10 -16
-15 0 -12 -29 4 -46 17 -16 46 -19 46 -4 0 6 25 10 55 10 30 0 55 5 55 10 0 6
9 10 20 10 11 0 20 5 20 10 0 6 -4 10 -10 10 -5 0 -10 5 -10 10 0 6 6 10 14
10 8 0 17 6 20 13 5 9 7 9 12 0 9 -20 24 -15 24 6 0 11 9 23 20 26 11 3 20 11
20 16 0 5 5 9 10 9 6 0 10 -6 10 -14 0 -8 6 -17 13 -20 10 -5 10 -7 0 -12 -7
-3 -13 -22 -13 -43 0 -25 -6 -41 -20 -51 -16 -11 -20 -26 -20 -67 0 -29 -4
-53 -10 -53 -5 0 -10 -5 -10 -11 0 -7 -8 -19 -19 -28 -13 -12 -19 -35 -23 -91
-3 -41 -11 -76 -17 -78 -6 -2 -11 -15 -11 -28 0 -13 -4 -24 -10 -24 -5 0 -10
-13 -10 -30 0 -20 -5 -30 -15 -30 -8 0 -15 -9 -15 -20 0 -11 -4 -20 -10 -20
-5 0 -10 -11 -10 -25 0 -14 -4 -25 -10 -25 -5 0 -10 -9 -10 -20 0 -16 -7 -20
-30 -20 -28 0 -30 -2 -30 -40 l0 -40 50 0 c38 0 50 4 50 15 0 11 11 15 40 15
28 0 40 4 40 14 0 8 6 17 13 20 10 5 10 7 0 12 -15 7 -17 44 -3 44 6 0 10 28
10 64 0 42 4 66 13 69 9 4 8 8 -3 17 -11 9 -12 13 -2 17 6 2 12 16 12 29 0 13
5 24 10 24 6 0 10 9 10 20 0 11 5 20 10 20 6 0 10 7 10 15 0 8 5 15 10 15 6 0
10 16 10 35 0 19 5 35 10 35 6 0 10 11 10 25 0 14 5 25 10 25 6 0 10 7 10 16
0 15 23 44 34 44 3 0 6 -9 6 -20 0 -11 5 -20 10 -20 6 0 10 -18 10 -39 0 -49
8 -71 26 -71 10 0 14 -12 14 -40 0 -22 5 -40 10 -40 6 0 10 -9 10 -20 0 -11 5
-20 10 -20 6 0 10 -15 10 -34 0 -19 6 -37 13 -39 9 -4 8 -8 -3 -16 -12 -8 -11
-13 8 -29 12 -11 22 -29 22 -40 0 -11 6 -23 13 -26 10 -5 10 -7 0 -12 -21 -9
-16 -44 6 -44 11 0 21 -6 24 -12 5 -18 169 -18 175 0 2 6 17 12 33 12 24 0 29
4 29 26 0 14 -6 32 -14 40 -17 16 -46 19 -46 4 0 -5 -9 -10 -20 -10 -11 0 -20
5 -20 10 0 14 -27 12 -34 -2 -5 -10 -7 -10 -12 0 -3 6 -14 12 -24 12 -31 0
-50 11 -50 30 0 10 -6 21 -12 23 -10 4 -9 8 2 17 11 9 12 13 3 17 -8 3 -13 22
-13 47 0 30 -5 46 -20 56 -11 8 -20 25 -20 37 0 13 -4 23 -10 23 -5 0 -10 6
-10 14 0 8 -6 17 -12 19 -10 4 -9 8 2 17 11 9 12 13 3 17 -7 2 -13 20 -13 39
0 19 -4 34 -10 34 -5 0 -10 18 -10 40 0 22 -4 40 -10 40 -5 0 -10 16 -10 35 0
24 -5 35 -15 35 -10 0 -15 10 -15 30 0 18 -6 33 -15 36 -17 7 -21 44 -5 44 6
0 10 7 10 15 0 8 -4 15 -10 15 -5 0 -10 5 -10 10 0 15 49 12 66 -4 8 -8 14
-17 14 -21 0 -11 28 -35 40 -35 11 0 24 -10 65 -47 13 -13 31 -23 40 -23 8 0
15 -4 15 -10 0 -5 11 -10 25 -10 18 0 25 5 25 20 0 14 7 20 24 20 13 0 26 -6
29 -12 2 -7 8 -10 12 -6 8 8 -31 48 -47 48 -12 0 -58 47 -58 60 0 5 5 10 10
10 6 0 10 -7 10 -15 0 -8 5 -15 10 -15 6 0 10 11 10 25 0 18 -5 25 -20 25 -11
0 -20 5 -20 10 0 6 -7 10 -15 10 -8 0 -26 12 -40 26 -14 14 -29 23 -33 19 -4
-4 -1 -10 6 -12 23 -9 12 -23 -18 -23 -16 0 -30 5 -30 10 0 6 5 10 10 10 6 0
10 5 10 10 0 6 -7 10 -16 10 -9 0 -29 14 -44 30 -15 17 -35 30 -44 30 -9 0
-16 7 -16 15 0 8 -4 15 -10 15 -5 0 -10 14 -10 30 0 20 5 30 15 30 8 0 15 5
15 10 0 6 15 10 34 10 19 0 41 7 50 15 8 8 22 15 30 15 9 0 16 5 16 10 0 6 7
10 16 10 18 0 44 23 44 40 0 6 7 19 16 28 13 13 15 33 12 116 -2 66 -8 101
-16 104 -7 2 -12 8 -12 13 0 15 -88 99 -104 99 -8 0 -16 5 -18 11 -3 10 -175
18 -245 11z m256 -108 c21 -5 31 -12 31 -25 0 -11 5 -19 10 -19 6 0 10 -9 10
-20 0 -11 5 -20 10 -20 6 0 10 -23 10 -50 0 -46 -4 -54 -45 -95 -24 -25 -51
-45 -60 -45 -8 0 -15 -4 -15 -10 0 -5 -22 -10 -50 -10 -27 0 -50 -4 -50 -10 0
-15 -77 -12 -83 3 -4 9 -8 8 -17 -3 -9 -11 -13 -12 -17 -2 -2 6 -11 12 -19 12
-8 0 -14 5 -14 10 0 6 -9 10 -20 10 -11 0 -20 5 -20 10 0 6 -5 10 -11 10 -11
0 -39 24 -39 34 0 3 9 6 21 6 31 0 49 24 49 65 0 20 7 43 15 51 13 14 15 13
15 -10 0 -14 5 -26 10 -26 15 0 12 -29 -5 -46 -8 -9 -15 -29 -15 -45 0 -28 2
-29 45 -29 25 0 45 -4 45 -10 0 -6 27 -10 60 -10 33 0 60 4 60 10 0 6 9 10 20
10 11 0 20 5 20 10 0 6 14 10 30 10 28 0 30 2 30 40 0 22 -4 40 -10 40 -5 0
-10 11 -10 25 0 14 -4 25 -10 25 -5 0 -10 9 -10 20 0 11 -4 20 -10 20 -5 0
-10 9 -10 20 0 11 -7 20 -15 20 -8 0 -15 -4 -15 -10 0 -5 -7 -10 -15 -10 -8 0
-15 5 -15 10 0 6 -4 10 -10 10 -5 0 -10 -13 -10 -30 0 -16 -4 -30 -10 -30 -15
0 -12 -19 4 -36 18 -17 43 -18 49 -1 3 6 6 2 6 -10 1 -14 -5 -23 -14 -23 -8 0
-15 -9 -15 -20 0 -18 -7 -20 -70 -20 l-70 0 0 30 c0 30 14 40 24 18 5 -10 7
-10 12 0 3 6 14 12 25 12 10 0 19 5 19 10 0 6 -4 10 -10 10 -5 0 -10 7 -10 15
0 8 -9 15 -20 15 -11 0 -20 5 -20 10 0 6 -9 10 -20 10 -11 0 -20 3 -20 6 0 11
29 34 44 34 9 0 16 4 16 9 0 16 149 27 209 15z m111 -594 c13 -11 20 -23 15
-28 -4 -4 -10 -1 -12 6 -3 6 -13 12 -24 12 -10 0 -19 7 -19 15 0 20 13 19 40
-5z"/>
<path d="M4190 1710 c0 -5 7 -10 15 -10 8 0 15 5 15 10 0 6 -7 10 -15 10 -8 0
-15 -4 -15 -10z"/>
<path d="M4160 1650 c0 -5 5 -10 10 -10 6 0 10 5 10 10 0 6 -4 10 -10 10 -5 0
-10 -4 -10 -10z"/>
<path d="M4120 1630 c0 -5 5 -10 10 -10 6 0 10 5 10 10 0 6 -4 10 -10 10 -5 0
-10 -4 -10 -10z"/>
<path d="M4100 1190 c0 -11 5 -20 10 -20 6 0 10 9 10 20 0 11 -4 20 -10 20 -5
0 -10 -9 -10 -20z"/>
<path d="M4430 1180 c0 -5 5 -10 10 -10 6 0 10 5 10 10 0 6 -4 10 -10 10 -5 0
-10 -4 -10 -10z"/>
<path d="M4540 1135 c0 -8 8 -15 18 -15 10 0 24 -9 32 -20 8 -11 18 -20 22
-20 4 0 8 9 8 20 0 12 -7 20 -16 20 -8 0 -22 7 -30 15 -9 8 -20 15 -25 15 -5
0 -9 -7 -9 -15z"/>
<path d="M590 1070 c0 -5 5 -10 10 -10 6 0 10 5 10 10 0 6 -4 10 -10 10 -5 0
-10 -4 -10 -10z"/>
</g>
</svg>
